PathFileType	4	(X/Y/Z)	Patient4_TMGait_0pt6_01_right_01.trc.trc
DataRate	CameraRate	NumFrames	NumMarkers	Units	OrigDataRate	OrigDataStartFrame	OrigNumFrames
82.352941176471	82.352941176471	7	33	mm	82.352941176471	36	       141
Frame#	Time	Sacral			L.Shoulder			Chest			R.Shoulder			Neck			R.ASIS			L.ASIS			R.Thigh.Superior			R.Thigh.Lateral			R.Thigh.Inferior			R.Patella			L.Thigh.Superior			L.Thigh.Lateral			L.Thigh.Inferior			L.Patella			L.Shank.Superior			L.Shank.Lateral			L.Shank.Inferior			R.Shank.Superior			R.Shank.Lateral			R.Shank.Inferior			R.Heel			R.Midfoot.Superior			R.Midfoot.Lateral			R.Toe			L.Heel			L.Midfoot.Lateral			L.Midfoot.Superior			L.Toe			L.Elbow			L.Wrist			R.Elbow			R.Wrist			
		X1	Y1	Z1	X2	Y2	Z2	X3	Y3	Z3	X4	Y4	Z4	X5	Y5	Z5	X6	Y6	Z6	X7	Y7	Z7	X8	Y8	Z8	X9	Y9	Z9	X10	Y10	Z10	X11	Y11	Z11	X12	Y12	Z12	X13	Y13	Z13	X14	Y14	Z14	X15	Y15	Z15	X16	Y16	Z16	X17	Y17	Z17	X18	Y18	Z18	X19	Y19	Z19	X20	Y20	Z20	X21	Y21	Z21	X22	Y22	Z22	X23	Y23	Z23	X24	Y24	Z24	X25	Y25	Z25	X26	Y26	Z26	X27	Y27	Z27	X28	Y28	Z28	X29	Y29	Z29	X30	Y30	Z30	X31	Y31	Z31	X32	Y32	Z32	X33	Y33	Z33	

36	1.015000000000	611.337715183862	993.137139105645	472.593601474737	771.806509876464	1429.308808538519	294.837007555661	871.711028891482	1363.630735337757	458.706682935286	780.107634871343	1430.902415967279	629.908180388219	747.092032269055	1488.780354658441	448.135015017878	838.541853628622	940.148429329993	596.069311917778	827.713968517747	952.174255999618	319.957003145608	898.698668690493	748.610065585526	565.651343621467	826.541993783738	632.608463277112	621.786977626274	909.825818989954	588.648705724359	542.525059661294	917.832102174017	500.828037163725	547.177032556203	868.933437629811	733.618367860385	346.710560051719	782.154234423864	619.512448581262	279.700430006073	866.611550826751	534.221253836027	338.060675238174	857.162544300422	448.036634901586	334.696997662892	786.755222556843	390.977517827762	330.084566225047	645.302193316889	350.976033986881	281.520703192592	627.216306216411	225.484720312697	341.523656365100	899.287856586320	410.264854808859	552.530481982161	837.370608404217	298.766759657401	610.347461519023	890.562268929265	209.968588385013	546.742764744068	770.268664418260	40.880137640341	510.180412167160	940.139392873705	97.912224923363	547.762727000250	852.930447488414	36.040237267778	585.834434540355	1060.462351615322	47.677706485256	576.751906288413	435.023997038219	160.764278027119	381.767428298036	492.526928978065	118.406147422404	300.198779445542	596.610354261938	129.423263202269	320.292980259077	677.363519178753	31.806446203395	289.982630191813	812.008798767869	1078.405236989906	174.155196418775	1039.249248529473	952.581946164356	186.699501338276	716.541322954067	1084.217915347158	737.388549968084	768.617448545517	828.565242583741	741.562883732686	
37	1.027142857143	611.350212591472	993.982018728939	475.743851703187	770.086562477996	1430.207720108912	296.932467842917	871.589612535657	1364.499271108368	459.818171067847	781.619639428975	1431.620471752121	631.904767262594	746.883048082593	1489.548302386401	450.538143897594	839.293965304412	941.103066199176	597.465974874043	827.194757696431	953.192871029103	321.458813092946	897.201342519019	748.051372230129	567.620157466896	823.654393858634	632.747209488440	623.409481357395	906.350044020520	588.021927285748	543.983183016779	913.389114093225	500.295703916733	548.280995724382	873.516411878767	736.890277766008	348.351792744187	790.841782258544	620.735064777744	280.613165099256	877.978428844476	537.337946343177	338.801578107080	869.782231433379	450.080331544919	334.923720272948	797.860513780105	393.059353401636	330.402674285381	654.857081235347	357.575094846876	282.460830698491	633.518135244091	232.372221530822	342.041078433096	894.243041406784	409.893963635483	553.549028176931	831.685912965849	298.688130648282	611.232130716947	884.126028000002	209.691029713806	547.233199583289	763.011630968416	40.901396232538	510.363638180699	932.981580859113	97.832518795614	548.054841836020	845.654907262316	36.024958509291	585.992216468482	1053.218342831148	47.505214236189	576.939934695449	439.166714576044	175.269522683800	382.578274466923	494.750397129403	130.461520154668	300.738414770429	599.707873954889	136.214006157541	320.742675403364	675.260768890803	32.557677869922	289.888844346030	807.559986660905	1078.116736614538	178.157316260831	1027.990844321929	939.716897335522	189.262575221920	726.944935636907	1083.426859219423	741.310294095234	790.077035664195	830.236894372600	744.477177062549	
38	1.039285714286	611.172918596722	994.800111068625	478.719235056364	768.165537977118	1431.008853710229	298.945877354900	871.362786770546	1365.267534918702	460.772835588382	783.106777622586	1432.182974819604	633.818798397272	746.627613042860	1490.222931994814	452.907481127561	839.873620983735	941.923927194303	598.688424022173	826.483878184777	954.045931102506	322.755886534869	895.458020959719	747.430328589216	569.448061565814	820.608854690458	632.832624495169	624.959186478696	902.682834524288	587.371442911971	545.373747041036	908.753982670308	499.748053934986	549.387990425963	877.762005380524	740.334748390749	349.824498281595	799.040209118059	622.343103024969	281.387081607492	888.705475404790	540.912382788544	339.431896741529	881.927712058870	452.689969577214	335.145795446100	808.792316968027	395.565725924862	330.691279094033	664.514354090237	363.947996845864	283.419802538201	640.487895853035	239.006947768873	342.629967178574	889.050451714919	409.504175775533	554.540313666348	825.879014139006	298.574029446796	612.084789524796	877.628818391676	209.399897574092	547.711423414930	755.709536701182	40.940212839009	510.531853118986	925.817368815261	97.699274096324	548.342789260710	838.328406409325	35.995591052761	586.131958600618	1045.943043351228	47.211339592977	577.120465202323	444.559616471502	188.184532350865	383.611979283190	498.439245865257	141.581355390585	301.415527862516	604.000319313199	142.961610229262	321.267115188117	675.138768435965	34.008685783216	289.644475410095	803.008464111050	1077.771517914763	181.987737389909	1015.632965553173	926.896650590951	191.806563947787	737.505178525887	1082.805127425739	745.180935372924	811.795721873911	832.578281184191	747.232737594762	
39	1.051428571429	610.827132671967	995.602203932774	481.501755972424	766.104946060404	1431.737148119545	300.869645071160	871.042204973033	1365.958039731282	461.591591857653	784.541762068331	1432.632948467911	635.639611323863	746.329658450712	1490.835289867456	455.207996834481	840.280382998518	942.629686461601	599.778982089887	825.579139699249	954.757535770743	323.879432661431	893.539402996440	746.808839828636	571.105480897189	817.485522454251	632.902721536100	626.419501031730	898.904348690429	586.730525412102	546.688617066480	904.006183680393	499.208160702180	550.486662127740	881.590222900360	743.922909179711	351.167899939509	806.639117556333	624.326241342947	282.027443556310	898.673495339734	544.906237369967	339.928118742377	893.478122786833	455.836862005424	335.291518618433	819.454373424898	398.450418031024	330.904385928408	674.164385875582	369.889147395554	284.357600729060	648.153477110039	245.119391543576	343.235252856151	883.778797225967	409.119422980533	555.494197171743	820.004755326630	298.459976290825	612.907034018897	871.111399548696	209.117132036894	548.178401273369	748.378228395820	41.006366553605	510.693050745047	918.654716200037	97.535203603924	548.614428995505	830.973045628153	35.964620471219	586.257788782613	1038.654057935755	46.821657685708	577.288786537124	451.201903887689	198.962422442453	384.831560000486	503.672192542934	151.240941036688	302.201860399282	609.617223459610	149.323171158416	321.803993475519	677.340557042543	36.115366348648	289.236947947349	798.339588691061	1077.396347672538	185.639051201512	1002.161653085257	914.293871648750	194.315937816876	748.226620128337	1082.386107961498	748.930138668667	833.637571558808	835.625592052329	749.791195379948	
40	1.063571428571	610.340852845713	996.401806334382	484.090107865117	763.969784489401	1432.424785618626	302.699159340158	870.638220407962	1366.601931439439	462.301584871921	785.895850196760	1433.028157935335	637.357692230044	745.987597501181	1491.422722816491	457.405570443567	840.522254605802	943.247313559870	600.776549944012	824.488835107745	955.383297144854	324.875125161355	891.507680314867	746.234802764700	572.579491592422	814.325108323199	632.991284012848	627.773027600891	895.065505509534	586.123715401541	547.924344765366	899.195019915681	498.696431723857	551.560903707590	884.949520490924	747.627707644330	352.416325487063	813.570003614824	626.658728828357	282.538214129396	907.813214585281	549.266587371506	340.264207999132	904.349641606847	459.479696971242	335.296294431653	829.789006055810	401.651455885178	330.998872853291	683.736889792305	375.197497718022	285.228983831285	656.563326035851	250.457502278706	343.800163097525	878.469528209105	408.762263624435	556.401726289873	814.089390381201	298.377681771984	613.694089211331	864.595494300685	208.864899838074	548.636484750936	741.030677896717	41.104598737406	510.852750871296	911.497133631068	97.363659090522	548.863461373162	823.607708599132	35.942212574125	586.373038277988	1031.363989586920	46.370688657024	577.442402482811	459.099885139859	207.171929690693	386.180457365815	510.513067238586	158.994334782337	303.054784983208	616.681436309094	154.956367373133	322.293076131830	682.134491982742	38.722790877547	288.661414721155	793.524082491286	1077.030140778400	189.112491925251	987.582161627330	902.087276875316	196.774927724394	759.096823889484	1082.215669068790	752.485540926407	855.482160994816	839.423620605659	752.112605680854	
41	1.075714285714	609.743955231362	997.213028291302	486.494416600964	761.820258501902	1433.103055928958	304.432655205159	870.159708033253	1367.231890511309	462.932296068509	787.142758626672	1433.428710608282	638.966120231607	745.596917884803	1492.020343550234	459.474019216830	840.614937415863	943.805653309235	601.709575155332	823.229489881456	955.996561788559	325.794187922101	889.409237190509	745.738171572082	573.869494778350	811.136553513558	633.125066068727	629.005650171806	891.189622545127	585.565872732662	549.080293954960	894.342409751789	498.228845773060	552.594073754437	887.816328879255	751.421529236639	353.591026737215	819.800354670117	629.298883846905	282.924537848293	916.095554527707	553.925594855841	340.419039595100	914.487288581958	463.562980752204	335.115568853877	839.765033607691	405.094525190670	330.942799569073	693.192983170650	379.691091335498	285.991731253670	665.769807925668	254.806049939192	344.271608413121	873.139508317040	408.450966997521	557.255312929347	808.137254533908	298.351584934858	614.437460523407	858.086904017517	208.662050954289	549.087420844165	733.676036788691	41.234990872241	511.013576347295	904.345526552683	97.204513039024	549.089015851071	816.246148068708	35.935286567124	586.480108931087	1024.080135418409	45.894229976053	577.580436374442	468.266608483221	212.519419492823	387.586920590004	519.006028975115	164.505175630473	303.919656392224	625.291896298776	159.552622371882	322.679170478991	689.686786403315	41.588020383728	287.915607880679	788.521761291789	1076.713424671764	192.413881811745	971.926849214397	890.453266777401	199.168199408418	770.080293453006	1082.340850761919	755.779271668588	877.224102100995	844.018913168130	754.157952677302	
42	1.087857142857	609.064374087933	998.048414672507	488.730196244669	759.705401180493	1433.796133287424	306.070633049133	869.614446786882	1367.875659096330	463.511253611856	788.262302739573	1433.885673798868	640.461404347098	745.153022540267	1492.654249634722	461.399689944701	840.579331333555	944.329831197390	602.592813812491	821.823657721292	956.671964080089	326.684191878030	887.270507828462	745.331139065967	574.981002792071	807.909191233628	633.321347584967	630.109516482941	887.278891360079	585.062436503243	550.156618093460	889.450270677686	497.815705019910	553.572194593995	890.189729290161	755.272431401947	354.697556930114	825.325213191283	632.188934929818	283.194674631327	923.519605909705	558.800716350824	340.383403119407	923.855458312039	468.015714158091	334.732305297499	849.364514621643	408.697616570517	330.719886368890	702.514673803797	383.220575247582	286.614220387570	675.814020486897	258.002405192034	344.603485977816	867.787518468203	408.197373835202	558.049125536888	802.139582015263	298.396833467910	615.127336787141	851.580961595477	208.521345019137	549.531000832094	726.319930966063	41.393735558502	511.175432859830	897.199880624812	97.072123728103	549.294408400244	808.896570308735	35.947310588745	586.580368346712	1016.805192036569	45.423890523816	577.703190040359	478.719753097776	214.854091498880	388.970675209001	529.172030328379	167.563910275495	304.733321085376	635.510404302538	162.867122324736	322.912454746176	700.050534076013	44.427841656414	286.992877933627	783.286390315273	1076.479944394503	195.549640757106	955.260685289999	879.555888790578	201.481364102340	781.117751723512	1082.798854532287	758.754082484706	898.770576756548	849.451992138226	755.892189380754	
